<svg xmlns="http://www.w3.org/2000/svg">
  <!-- from https://openclipart.org/detail/183129/heart-symbol -->
  <symbol id="heart" viewBox="0 0 280 270">
    <path d="m140 58c30-60 110-60 130 0 30 100-110 150-130 210m0-210c-30-60-110-60-130 0-30 100 110 150 130 210"/>
  </symbol>


  <symbol id="summer-games" viewBox="0 0 128 128">
    <path d="M73.61,76.53c4.56-29,17.46-43.75,26.39-55.09C109.8,9,92.93.57,78.26,26.45,69.56,41.81,65.78,54.36,64.4,79.2a148.36,148.36,0,0,0,2.4,36.51c.77,4,4.91,3.36,4.56-.26S69.3,104,73.61,76.53Z" transform="translate(-2.38)"></path>
    <path d="M102.46,41.4s-3.8-1.2-9.26,4.32-9.5,12.4-14.63,31c-4.92,17.86-5.61,31.4-5.18,36.32s4.14,2.24,4.31,1,1.39-8.24,4.92-23.37A74.26,74.26,0,0,1,99.35,57.88c2.59-2.94,5.61-3.37,9.14-2s7-1.29,5.7-6.38S106.51,41.4,102.46,41.4Z" transform="translate(-2.38)"></path>
    <path d="M115,27.78a7.46,7.46,0,0,0-7.69,7.2,7.71,7.71,0,0,0,15.38,0A7.45,7.45,0,0,0,115,27.78Z" transform="translate(-2.38)"></path>
    <path d="M39.59,34c-15-18.66-27.33-9.76-17.92-1.15,8.57,7.85,20.75,17.91,28.14,40.35,7,21.24,6.65,27.72,6.85,30.64s3.56,2.9,3.66-.39a120,120,0,0,0-2.84-29.32C53.15,54.59,48.51,45.1,39.59,34Z" transform="translate(-2.38)"></path>
    <path d="M45.9,75.58c-6.51-14.15-10.6-19.1-15.67-22.77s-7.92-2.23-7.92-2.23c-3.22.53-7.9,3.76-8.27,8s2.73,5.89,5.36,4.34,5.08-1.61,7.52.38A59.84,59.84,0,0,1,44.49,87.21c4.78,11.58,6.66,17,6.95,17.94s3.59,2.58,3.3-1.38S52.13,89.13,45.9,75.58Z" transform="translate(-2.38)"></path>
    <path d="M17.65,46.1a6,6,0,0,0-7-4.72,5.81,5.81,0,1,0,1.87,11.45A6,6,0,0,0,17.65,46.1Z" transform="translate(-2.38)"></path><path d="M58.2,36.23c5.2,0,9.41-3.86,9.41-8.63S63.4,19,58.2,19s-9.41,3.86-9.41,8.62S53,36.23,58.2,36.23Z" transform="translate(-2.38)"></path>
  </symbol>
  <symbol id="halloween" viewBox="0 0 128 128">
    <path d="M101.43,35.45c-12.46-6.24-19.8-4.76-28.3-3.14L72.5,21.22c0-1.79-.36-3.07-.67-6l-.71-2a.9.9,0,0,0-.91-.9l-12,0-.62,0a9.24,9.24,0,0,0-4.27.83L47.14,16c-.5,0-1.38,1.21,0,2.07l4.54,2.35c1.65.85,4.06,3.15,4.35,5L56.09,34C40.55,34.3,28.9,33.19,17.33,44,8.49,52.17,2.76,62.22,2.76,73.49c0,14,3.84,24.23,16.87,31,5.91,3,6.61,8.66,23,8.41,1,0,.78,2.84,13.2,2.84,8.67,0,9.06-1.42,10.35-1.42,1,0,1.55,1.42,9.18,1.42,8.28,0,7.91-1.83,9.45-2.33,1-.33.08,1,6,0,7.81-1.29,7.52-4.32,10.74-5.82,14.18-6.62,23.72-19.23,23.72-34.05C125.24,54,116.35,42.93,101.43,35.45ZM76.16,61.93c9.06-3.28,20-4.74,26.42-7.84,3.5-1.69,7.74-.61,3.85,5S96.86,71,88.58,71C81.16,71,72.23,63.36,76.16,61.93ZM25.23,53.36C30.49,56.5,42.05,61,51.11,63.05c4.08.93-5.72,8.36-13.11,7.68-8.45-.78-11.71-6-15.59-11.65S21.88,51.37,25.23,53.36ZM97.15,94.71c-11.25,8.77-15.61,8.71-33.15,8.71s-21.25.06-32.51-8.71C15.34,82.11,14.17,67.48,17.08,71c6.86,8.28,15.82,8.19,19.3,11,1.32,1.08,8.16,13.62,10.85,12.33S53,87,55.08,86.68s5.71.18,8.92.18,8-1,10.14-.69,6.16,5.6,8.86,6.9,8.75-11.16,10.07-12.25c3.48-2.85,15.64-6.3,18.5-9.83S113.31,82.11,97.15,94.71Z" transform="translate(-2.38)"></path>
  </symbol>
  <symbol id="winter-wonderland" viewBox="0 0 128 128"><path d="M47.61,31.59c4.46,3,8.88,3,8.88,6.57,0,6,.65,5.77.13,5.77-2.62,0-1,5.6,3.85,6.9,1.44.37.37,7,3.34,7.53v.06a.62.62,0,0,1,.38,0v-.06c3-.52,1.9-7.16,3.34-7.53,4.9-1.3,6.47-6.9,3.85-6.9-.52,0,.13.18.13-5.77,0-3.54,4.42-3.55,8.88-6.57s7.87-15.26,5.34-13.19S67.09,30.56,66,31.59s-1.16,1.59-2,1.69c-.79-.1-.9-.73-2-1.69S44.81,20.47,42.27,18.4,43.15,28.57,47.61,31.59Z" transform="translate(-2.38)"></path>
    <path d="M63.85,21.46v0l.15,0,.15,0v0c2.8-.46,12.48-7,12.48-8.5S66.45,5.15,64.15,4.57V4.51l-.15,0-.15,0v.06c-2.3.58-12.48,6.91-12.48,8.39S61.05,21,63.85,21.46Z" transform="translate(-2.38)"></path>
    <path d="M80.39,96.41c-4.46-3-8.88-3-8.88-6.57,0-6-.65-5.77-.13-5.77,2.62,0,1.05-5.6-3.85-6.9-1.44-.37-.37-7-3.34-7.53v-.06a.62.62,0,0,1-.38,0v.06c-3,.52-1.9,7.16-3.34,7.53-4.9,1.3-6.47,6.9-3.85,6.9.52,0-.13-.18-.13,5.77,0,3.54-4.42,3.55-8.88,6.57s-7.87,15.26-5.34,13.19S60.91,97.44,62.05,96.41s1.16-1.59,2-1.69c.79.1.9.73,2,1.69s17.24,11.12,19.78,13.19S84.85,99.43,80.39,96.41Z" transform="translate(-2.38)"></path>
    <path d="M64.15,106.54v0l-.15,0-.15,0v0c-2.8.46-12.48,7-12.48,8.5s10.18,7.81,12.48,8.39v.06l.15,0,.15,0v-.06c2.3-.58,12.48-6.91,12.48-8.39S67,107,64.15,106.54Z" transform="translate(-2.38)"></path>
    <path d="M34.91,49.58c-1.46.47-18.22,9.42-21.28,10.6s9.27,4.3,14.1,1.93,7.05-6.2,10.12-4.44c5.16,3,5.32,2.3,5.06,2.75-1.3,2.28,4.35,3.7,7.91.09,1-1.06,6.26,3.17,8.2.85l0,0a.67.67,0,0,0,.07-.18l.12-.15,0,0c1-2.83-5.26-5.21-4.88-6.64,1.32-4.9-2.76-9-4.07-6.77-.26.45.23,0-4.94-3-3.07-1.76-.88-5.6-1.28-11s-9.33-14.43-8.8-11.19,1.29,22.21,1.62,23.71.8,1.8.49,2.54C36.87,49.36,36.26,49.15,34.91,49.58Z" transform="translate(-2.38)"></path>
    <path d="M13.44,49.58c1.3.75,11.79-4.4,13.57-6.6l0,0,.06-.14s.07-.08.09-.12l0,0c1-2.65.14-14.31-1.16-15s-11.84,4.94-13.49,6.65l0,0s0,.1-.05.15l-.1.11,0,0C11.72,36.87,12.15,48.84,13.44,49.58Z" transform="translate(-2.38)"></path>
    <path d="M93.09,78.42c1.46-.47,18.22-9.42,21.28-10.6s-9.27-4.3-14.1-1.93-7,6.2-10.12,4.44c-5.16-3-5.32-2.3-5.06-2.75,1.3-2.28-4.35-3.7-7.91-.09-1,1.06-6.26-3.17-8.2-.85l0,0a.67.67,0,0,0-.07.18s-.08.09-.12.15l0,0c-1,2.83,5.26,5.21,4.88,6.64-1.32,4.89,2.76,9,4.07,6.77.26-.45-.23,0,4.94,3,3.07,1.76.88,5.6,1.28,11s9.33,14.42,8.8,11.19-1.29-22.21-1.62-23.71-.8-1.8-.49-2.54C91.13,78.64,91.74,78.85,93.09,78.42Z" transform="translate(-2.38)"></path>
    <path d="M114.56,78.42c-1.3-.75-11.79,4.4-13.57,6.6l0,0-.06.14s-.07.08-.09.12l0,0c-1,2.65-.14,14.31,1.16,15s11.84-4.94,13.49-6.65l.05,0s0-.1,0-.15l.1-.11,0,0C116.28,91.13,115.85,79.16,114.56,78.42Z" transform="translate(-2.38)"></path>
    <path d="M45.72,83.75c5.1-3.07,4.61-3.53,4.88-3.08,1.35,2.25,5.34-2,3.93-6.86-.42-1.42,5.82-3.93,4.74-6.74l0,0a.88.88,0,0,0-.12-.15c0-.06,0-.11-.07-.17l0,0c-2-2.27-7.11,2.06-8.18,1-3.63-3.54-9.25-2-7.9.25.27.45.1-.21-5,2.86-3,1.82-5.32-2-10.21-4.23s-17.14,1.12-14.06,2.23,20,9.7,21.5,10.15,2,.17,2.45.8c.33.73-.16,1.15-.44,2.54s-.65,20.51-1.12,23.75,8.27-6,8.56-11.37S42.69,85.57,45.72,83.75Z" transform="translate(-2.38)"></path>
    <path d="M27.65,86a.94.94,0,0,0-.09-.12l-.06-.14,0,0C25.63,83.63,15,78.71,13.75,79.48S12.3,92.23,13,94.5l-.05,0,.1.11s0,.11.05.14l.05,0c1.68,1.68,12.36,7.13,13.63,6.37s1.9-12.44.85-15.07Z" transform="translate(-2.38)"></path>
    <path d="M82.28,44.25c-5.1,3.07-4.61,3.53-4.88,3.08-1.35-2.25-5.34,2-3.93,6.86.42,1.42-5.82,3.93-4.74,6.74l0,0a.88.88,0,0,0,.12.15c0,.06,0,.11.07.17l.05,0c2,2.27,7.11-2.06,8.18-1,3.63,3.54,9.25,2,7.9-.25-.27-.45-.1.21,5-2.86,3-1.82,5.32,2,10.21,4.23s17.14-1.12,14.06-2.23-20-9.7-21.5-10.15-2-.17-2.45-.8c-.32-.73.16-1.15.44-2.54s.65-20.51,1.12-23.75-8.27,6-8.56,11.37S85.31,42.43,82.28,44.25Z" transform="translate(-2.38)"></path>
    <path d="M100.35,42a.94.94,0,0,0,.09.12l.06.14,0,0c1.83,2.16,12.42,7.08,13.71,6.31s1.45-12.75.76-15l0,0-.1-.11s0-.11,0-.14l0,0c-1.68-1.68-12.36-7.13-13.63-6.37s-1.9,12.44-.85,15.07Z" transform="translate(-2.38)"></path>
  </symbol>
  <symbol id="lunar-new-year" viewBox="0 0 128 128">
    <path d="M125,70l-.27-1.33c-1.49-4.15-3.69-6.81-6.13-9.94l-1.36-1.38a30.25,30.25,0,0,0-3.14-2.84,51.52,51.52,0,0,0-7.46-5.08,51.21,51.21,0,0,0-8.56-3.3c-1.84-.55-3.75-.85-5.69-1.3l-2.15-.32-4-.32-.08,0V44a14.87,14.87,0,0,1,2.53-2c1.56-1.29,3.3-2.38,5-3.59l2-1.65,2.66-2a4.41,4.41,0,0,0,.08-2.45A6.85,6.85,0,0,0,95.72,28a12.72,12.72,0,0,0-8.4-1.75c-1.11.18-2.13,0-3.16.21-1.24.27-2.51.41-3.67.72-.42.11-1,.47-1.51.24l0-.08c0-.5.56-.84.82-1.15.62-.7,1.26-1.36,1.92-2a32.47,32.47,0,0,1,7.41-5.47c1.27-.69,2.68-1.2,4-1.78a39.75,39.75,0,0,1,4.52-1.44c1-.28,1.75-.15,2.07-1.09-.09-.28.09-.94,0-1.27-1.21-2.75-5.26-4.69-8-6A61.12,61.12,0,0,0,79.51,2.76a10,10,0,0,0-3.46.11l-1.43.21a19.51,19.51,0,0,0-6.38,2.76A5.77,5.77,0,0,0,67.1,7.2a51.77,51.77,0,0,0-3.3,5,42.18,42.18,0,0,0-2.66,5.53l-1.75,5.5-2.29,6c-.35,1.09-.71,2.18-1.06,3.27a41.15,41.15,0,0,1-2.34,4.7,25.47,25.47,0,0,1-1.33,2.42c-1,1.36-2.64,3.43-4.46,3.88C45.84,44,45,41.71,43.84,41c-2.11-1.23-3.74.19-5.08,1.06L36.9,43.45,33.61,45.2a96.06,96.06,0,0,1-9,4.23C23.33,50,19.91,51.2,18,50.71c-.62-.91.1-2.32.47-3.06,1.25-2.45,3.58-3.72,5.43-5.56,3.36-3.34,7.56-5.9,11.5-8.66l2.9-2c.48-.32,1.2-.61,1.49-1.12.48-.82.3-3,.05-4s-.27-1.57-.55-2.31a17.1,17.1,0,0,0-2.9-4.73,11.26,11.26,0,0,0-5.66-3.48c-2.72-.85-7,.59-8.48,1.73a15.68,15.68,0,0,0-2.39,2.36c-1,1.21-2.17,2.24-3.14,3.48a68.77,68.77,0,0,0-4.54,6.09,81,81,0,0,0-4.92,9.3,35,35,0,0,0-1.83,4.79v.13l0,0a11.19,11.19,0,0,0,.88-1.25c.45-.63,1-1.24,1.48-1.86A11.57,11.57,0,0,1,9.74,38.8c.78-.63,1.48-1.39,2.29-2a30.9,30.9,0,0,1,8.08-4.58c1.49-.53,7.26-1,7.65.67.23,1-1.66,2.9-2.13,3.48a43.23,43.23,0,0,1-5.92,5.95l-2.79,2.48-4.23,4.06a43.5,43.5,0,0,0-6.91,8.64,21.51,21.51,0,0,0-2.1,4.15c-.34,1-.59,2.17-.88,3.32-.08.77-.17,1.54-.26,2.31a6.49,6.49,0,0,0-.11,2.18c.11.93.21,1.86.32,2.79l.51,2.87a6.43,6.43,0,0,0,2.33.05L7.38,75c1.4-.42,2.83-.73,4.12-1.22l4-1.33a32.26,32.26,0,0,0,8-4.78A26.55,26.55,0,0,0,27.36,64l2.34-2.55h0a24.39,24.39,0,0,1-1.28,3.48L27,69.07c-.51,1.19-1.18,2.28-1.78,3.38-.76,1.38-1.39,2.79-2.2,4.12-2.29,3.7-5.78,7.48-10.55,8.66l-.8,0a8.11,8.11,0,0,1-4.65-.85c-.41-.21-1.1-.86-1.57-.88a6.12,6.12,0,0,0,.66,1.89c.42,1,.75,2,1.17,2.89a73.5,73.5,0,0,0,4.18,8A22.16,22.16,0,0,0,13,98.68a4.4,4.4,0,0,0,4.12,1.57,7.76,7.76,0,0,0,5.08-3.33l1.43-2c.05,0,0,0,.13-.05a5.42,5.42,0,0,1,.08,1.78c0,1.52,0,3.05-.05,4.57l.27,2.9c.62,2.79.92,5.64,1.91,8.11.48,1.2,3.6,3,4.78,3.77A75.68,75.68,0,0,0,41,121.37c2.2.94,4.56,1.56,6.91,2.37a43.74,43.74,0,0,0,5.9,1.33,8.26,8.26,0,0,0,2.18.24c.19-.15-.15-1.75-.24-2.07a29.07,29.07,0,0,0-2.42-5.43c-2.3-4.38-5.4-8-7.76-12.28a80.35,80.35,0,0,1-4.15-9.64,58.2,58.2,0,0,1-1.67-6.59l-.45-3.19-.06-1a30.65,30.65,0,0,1-.13-5,33,33,0,0,1,.24-5.69c.14-.75,0-1.5.18-2.18,0-.38.06-.76.08-1.14.23-.92.26-2,.48-2.87.29-1.14.28-2.26.59-3.35a68.87,68.87,0,0,1,6.93-16.56L49,46.48l2.58-3.54,1.72-2,2.18-2.29,2.61-2.79a35.66,35.66,0,0,1,4.54-4.49c1.5-1.28,2.95-2.68,4.57-3.83,2.65-1.86,5.43-3.5,8.22-5.23,1.1-.69,2.27-1.25,3.48-1.86.27-.14.89-.63,1.25-.51h0a13.93,13.93,0,0,1-2.47,3L76,24.79l-5,4.68A10,10,0,0,0,68.58,32c-.16.28-.52.7-.34,1.2.37,1.08,3.12,2.85,4.2,3.38.37.18.92.19,1.3.42l.08,0v.11c-3.37,2.34-6.74,4.68-10.07,7-1.93,1.35-4,2.95-5.11,5.15-.65,1.37-1.43,7.13.14,8a1.6,1.6,0,0,0,1.22-.1,29.79,29.79,0,0,1,3-.93l5-.88,1.72-.19L72,55.14a16.16,16.16,0,0,1,4.17,0c3.05.6,6.06.74,8.75,1.67a44.07,44.07,0,0,1,6.21,2.56A20.76,20.76,0,0,1,96,63.28a18,18,0,0,1,2.18,2.42,29.4,29.4,0,0,1,3,6.21,47.29,47.29,0,0,1,1.55,6.81c.24,1.09,0,2.16.21,3.35A9.25,9.25,0,0,1,103,84.8c0,.58-.09,1.16-.13,1.73-.19,1-.38,2-.56,3.06a31.14,31.14,0,0,1-1.73,5.07A28.76,28.76,0,0,1,85.41,108.8a44.62,44.62,0,0,1-6.7,2l-2.15.26a10.73,10.73,0,0,1-3.51.16c-1-.16-1.94,0-2.9-.18a39.92,39.92,0,0,1-6.7-1.73,43.63,43.63,0,0,1-4.73-2.18,27.76,27.76,0,0,1-9.11-8.32,16,16,0,0,1-1.25-2.52,35.76,35.76,0,0,1-3-10.72h0c-.31.31-.16,1.12-.26,1.63A12,12,0,0,0,45,90.6l0,1.35A52.3,52.3,0,0,0,46,97.3c.51,1.57.91,3.17,1.54,4.62A37.07,37.07,0,0,0,50,106.33a35.05,35.05,0,0,0,2.55,3.43l1.12,1.17a25.7,25.7,0,0,0,3.24,3.19,35.58,35.58,0,0,0,4.36,3.43A58,58,0,0,0,70,121.77a37.4,37.4,0,0,0,5.2,1.6c.84.21,1.65,0,2.58.21a11.84,11.84,0,0,0,4.25-.21l2.88-.69a64.9,64.9,0,0,0,9.4-4.1A62.05,62.05,0,0,0,119,94.5c1.25-2.23,2.27-4.53,3.38-7C124.4,83.1,126.8,76.24,125,70ZM74,73.24c-.4.16-2.31-.61-2.74-.77a12.9,12.9,0,0,0-7.12-.61,23.73,23.73,0,0,0-3.19,1,33.86,33.86,0,0,0-7.41,5,9.2,9.2,0,0,0-3.09,3.85c-.88,2.41-.52,6.86.19,9.22A14,14,0,0,0,52.48,95a5.36,5.36,0,0,0,3.37,1.94l2.34,0a7.65,7.65,0,0,0,2.34,0c1-.17,2-.14,3-.4a41.62,41.62,0,0,0,8.24-2.92,24,24,0,0,0,2.6-1.54c.32-.21.67-.68,1.14-.69a19.72,19.72,0,0,1,1.44,2.12,38.28,38.28,0,0,1,3.35,6c.37.93,1,2.58.56,3.75-.49,1.42-1.64,2.27-2.56,3.27a3.38,3.38,0,0,0-.79,1.06v0c.31.2,1.15-.09,1.56-.22,1.36-.4,2.72-.79,4-1.27a18.9,18.9,0,0,0,9.81-7.6c.41-.69,1.82-3.06,1.7-4.07a14,14,0,0,0-1.14-3.64,36.3,36.3,0,0,0-4.76-7.89l-1.83-2c-.34-.27-1-.7-1.15-1.12s.91-1.46,1.09-1.8a30.7,30.7,0,0,0,2.31-5.29,3.64,3.64,0,0,0,.48-2c-.36-1.43-2-2.87-3-3.82a19.14,19.14,0,0,0-6.72-4.44c-.9-.35-1.77-.47-2.77-.77A17.39,17.39,0,0,0,71.77,61L70.15,61a41.13,41.13,0,0,0-4.2.62,41.51,41.51,0,0,0-5.29,1.75A20.55,20.55,0,0,0,53.38,69c-.73.9-1.56,1.74-2.28,2.66-.3.37-.87.72-1,1.27l2-1.35A39.72,39.72,0,0,1,56.81,69a36.52,36.52,0,0,1,5.53-1.68L64.57,67,68,66.65a6,6,0,0,1,2.09.13c1.73.43,4.57.93,5.32,2.21a1.79,1.79,0,0,1,.11,1A13.28,13.28,0,0,1,74,73.24ZM66.46,84.59a42.52,42.52,0,0,1-4.89,4.17c-.47.35-1.63,1.41-2.29,1.41a5.51,5.51,0,0,1-.42-1.59c-.85-3,.19-6.68,1.75-8.13a3.23,3.23,0,0,1,1-.62l.69-.13c2.09,0,4.67,2,5.66,3.14C67.88,83.36,66.82,84.23,66.46,84.59Z" transform="translate(-2.38)"></path>
  </symbol>
  <symbol id="archives" viewBox="0 0 128 128">
    <polygon fill="white" points="101.13 104.05 119.53 104.05 79.42 40.25 61.22 40.25 71.33 23.75 53.02 23.75 3.73 104.05 22.13 104.05 32.95 86.39 44.73 104.25 56.52 86.35 32.97 86.35 44.68 67.24 67.53 104.05 85.92 104.05 63.02 67.15 44.73 67.15 61.17 40.32 101.13 104.05"></polygon>
  </symbol>
  <symbol id="anniversary" viewBox="0 0 128 128">
    <path d="M101.275,52.1a48.767,48.767,0,0,1-67.934,58.707L30.476,128l-3.492-20.952a48.986,48.986,0,0,1-16.422-19.6L0,85.333H9.661A48.771,48.771,0,0,1,75.943,23.069L79.238,0l3.906,27.341A49.007,49.007,0,0,1,98.366,45.058L128,48.762ZM89.5,55.328A12.217,12.217,0,0,1,82.8,60.4L79.238,85.333,75.679,60.421a12.216,12.216,0,0,1-7.773-7.183L36.571,48.762l31.357-4.48a12.216,12.216,0,0,1,5.9-6.435L74.1,35.975A36.529,36.529,0,0,0,23.221,85.333H25.6l4.876-24.381,4.876,24.381h31.7l-30.577,5.1a5.513,5.513,0,0,1-.214,2.884L35.47,98.037A36.559,36.559,0,0,0,89.5,55.328Z"></path>
  </symbol>
  <symbol id="currency" viewBox="0 0 128 128">
    <path d="M96.822,11.228a60.521,60.521,0,0,1,27.821,32.029c-7.9.095-15.8,0-23.7,0.11-9.084-13.7-27-21.106-42.971-16.172-15.5,4.1-26.715,18.852-27.836,34.614-10.1.032-20.19,0-30.285,0.032-0.032-5.186-.047-10.387-0.016-15.573,3.807,0.016,7.63-.016,11.438-0.016,4.9-15.116,15.593-28.529,30-35.559A59.453,59.453,0,0,1,96.822,11.228ZM62.146,47.544c21.185,0.016,42.355-.032,63.525.047a77.161,77.161,0,0,1,2.211,14.218q-32.868.024-65.735,0.016C62.114,57.065,62.13,52.3,62.146,47.544ZM30.138,66.459C31.4,81.638,41.876,95.918,56.679,100.4c16.035,5.595,34.835-1.435,43.967-15.557,7.978-.079,15.94-0.095,23.918.079a60.426,60.426,0,0,1-27.773,31.871,59.383,59.383,0,0,1-55.467.536c-14.361-7.03-25.056-20.317-30-35.386-3.823,0-7.646-.016-11.469,0-0.032-5.17-.047-10.324,0-15.478H30.138Zm32.007,0q32.868,0,65.736.016a78.623,78.623,0,0,1-2.211,13.949c-21.17.063-42.339,0.016-63.524,0.032Q62.1,73.457,62.146,66.459Z"></path>
  </symbol>
</svg>